# xmcd CD database file
#
# Track frame offsets:
#	150
#	12712
#	35397
#	58286
#	76565
#	100189
#	126371
#	160447
#
# Disc length: 2397 seconds
#
# Revision: 0
# Processed by: cddbd v1.5.1PL0 Copyright (c) Steve Scherf et al.
# Submitted via: CDex 1.60beta1
#
DISCID=64095b08
DTITLE=REALING Label - Twin Moons/ふたつの月
DYEAR=1900
DGENRE=ニュー エイジ (一般)
TTITLE0=Prologue
TTITLE1=Luna
TTITLE2=Procession
TTITLE3=Memory Of Flowers
TTITLE4=Shadow Of Mooving
TTITLE5=Innocuous
TTITLE6=Eclipse
TTITLE7=Twin Moons
EXTD=
EXTT0=
EXTT1=
EXTT2=
EXTT3=
EXTT4=
EXTT5=
EXTT6=
EXTT7=
PLAYORDER=
